<svg id="visual" viewBox="0 0 900 600" width="900" height="600" xmlns="http://www.w3.org/2000/svg" xmlns:xlink="http://www.w3.org/1999/xlink" version="1.1"><path d="M0 37L50 37L100 25L150 43L200 25L250 19L300 31L350 49L400 49L450 19L500 31L550 25L600 19L650 49L700 31L750 37L800 25L850 43L900 43L900 0L850 0L800 0L750 0L700 0L650 0L600 0L550 0L500 0L450 0L400 0L350 0L300 0L250 0L200 0L150 0L100 0L50 0L0 0Z" fill="#ffffff"></path><path d="M0 73L50 55L100 67L150 73L200 73L250 61L300 49L350 91L400 79L450 43L500 49L550 55L600 43L650 67L700 73L750 85L800 79L850 97L900 79L900 41L850 41L800 23L750 35L700 29L650 47L600 17L550 23L500 29L450 17L400 47L350 47L300 29L250 17L200 23L150 41L100 23L50 35L0 35Z" fill="#fafafa"></path><path d="M0 211L50 199L100 175L150 151L200 145L250 139L300 103L350 229L400 163L450 163L500 199L550 157L600 205L650 223L700 199L750 181L800 157L850 181L900 229L900 77L850 95L800 77L750 83L700 71L650 65L600 41L550 53L500 47L450 41L400 77L350 89L300 47L250 59L200 71L150 71L100 65L50 53L0 71Z" fill="#f5f5f5"></path><path d="M0 307L50 283L100 235L150 223L200 211L250 235L300 217L350 295L400 235L450 253L500 289L550 223L600 277L650 295L700 241L750 265L800 229L850 211L900 277L900 227L850 179L800 155L750 179L700 197L650 221L600 203L550 155L500 197L450 161L400 161L350 227L300 101L250 137L200 143L150 149L100 173L50 197L0 209Z" fill="#f1f1f1"></path><path d="M0 349L50 337L100 295L150 259L200 295L250 259L300 301L350 361L400 289L450 337L500 349L550 283L600 319L650 373L700 331L750 331L800 277L850 259L900 331L900 275L850 209L800 227L750 263L700 239L650 293L600 275L550 221L500 287L450 251L400 233L350 293L300 215L250 233L200 209L150 221L100 233L50 281L0 305Z" fill="#ececec"></path><path d="M0 373L50 361L100 319L150 283L200 319L250 277L300 313L350 391L400 307L450 349L500 373L550 301L600 331L650 397L700 355L750 361L800 289L850 271L900 343L900 329L850 257L800 275L750 329L700 329L650 371L600 317L550 281L500 347L450 335L400 287L350 359L300 299L250 257L200 293L150 257L100 293L50 335L0 347Z" fill="#e7e7e7"></path><path d="M0 409L50 379L100 355L150 319L200 343L250 307L300 343L350 403L400 331L450 385L500 409L550 331L600 355L650 421L700 379L750 391L800 319L850 307L900 379L900 341L850 269L800 287L750 359L700 353L650 395L600 329L550 299L500 371L450 347L400 305L350 389L300 311L250 275L200 317L150 281L100 317L50 359L0 371Z" fill="#e3e3e3"></path><path d="M0 439L50 391L100 373L150 331L200 373L250 331L300 367L350 415L400 361L450 409L500 427L550 367L600 391L650 433L700 397L750 409L800 343L850 337L900 403L900 377L850 305L800 317L750 389L700 377L650 419L600 353L550 329L500 407L450 383L400 329L350 401L300 341L250 305L200 341L150 317L100 353L50 377L0 407Z" fill="#dedede"></path><path d="M0 469L50 439L100 415L150 367L200 403L250 343L300 397L350 463L400 391L450 421L500 469L550 397L600 415L650 457L700 409L750 427L800 385L850 379L900 433L900 401L850 335L800 341L750 407L700 395L650 431L600 389L550 365L500 425L450 407L400 359L350 413L300 365L250 329L200 371L150 329L100 371L50 389L0 437Z" fill="#dadada"></path><path d="M0 505L50 493L100 445L150 415L200 433L250 415L300 421L350 499L400 415L450 475L500 493L550 445L600 493L650 487L700 433L750 457L800 409L850 439L900 469L900 431L850 377L800 383L750 425L700 407L650 455L600 413L550 395L500 467L450 419L400 389L350 461L300 395L250 341L200 401L150 365L100 413L50 437L0 467Z" fill="#d5d5d5"></path><path d="M0 541L50 511L100 463L150 451L200 451L250 445L300 433L350 541L400 457L450 517L500 529L550 481L600 505L650 517L700 469L750 493L800 445L850 451L900 499L900 467L850 437L800 407L750 455L700 431L650 485L600 491L550 443L500 491L450 473L400 413L350 497L300 419L250 413L200 431L150 413L100 443L50 491L0 503Z" fill="#d1d1d1"></path><path d="M0 601L50 601L100 601L150 601L200 601L250 601L300 601L350 601L400 601L450 601L500 601L550 601L600 601L650 601L700 601L750 601L800 601L850 601L900 601L900 497L850 449L800 443L750 491L700 467L650 515L600 503L550 479L500 527L450 515L400 455L350 539L300 431L250 443L200 449L150 449L100 461L50 509L0 539Z" fill="#cccccc"></path></svg>